HIERARCHY
ROOT reference
{
  OFFSET 0 0 0
  CHANNELS 6 Xposition Yposition Zposition Zrotation Xrotation Yrotation
  JOINT Hips
  {
    OFFSET 368.823 89.7904 194.012
    CHANNELS 3 Zrotation Xrotation Yrotation
    JOINT RightUpLeg
    {
      OFFSET -9.24587 -1.53924 -0.0496539
      CHANNELS 3 Zrotation Xrotation Yrotation
      JOINT RightLeg
      {
        OFFSET 0.0288962 -41.8853 0.065208
        CHANNELS 3 Zrotation Xrotation Yrotation
        JOINT RightFoot
        {
          OFFSET -0.153961 -42.496 -0.469978
          CHANNELS 3 Zrotation Xrotation Yrotation
          End Site
          {
            OFFSET 0 -7.69 17.5
          }
        }
      }
    }
    JOINT LeftUpLeg
    {
      OFFSET 9.30368 -1.65799 0.0114032
      CHANNELS 3 Zrotation Xrotation Yrotation
      JOINT LeftLeg
      {
        OFFSET 0.0812002 -41.8405 -0.136291
        CHANNELS 3 Zrotation Xrotation Yrotation
        JOINT LeftFoot
        {
          OFFSET 0.408244 -41.1613 0.400562
          CHANNELS 3 Zrotation Xrotation Yrotation
          End Site
          {
            OFFSET 0 -7.69 17.5
          }
        }
      }
    }
    JOINT Spine
    {
      OFFSET 0.0091145 14.2923 0.0603898
      CHANNELS 3 Zrotation Xrotation Yrotation
      JOINT Spine1
      {
        OFFSET 0.0313032 9.72692 0.0269052
        CHANNELS 3 Zrotation Xrotation Yrotation
        JOINT Spine2
        {
          OFFSET 0.0416827 10.1254 -0.000588186
          CHANNELS 3 Zrotation Xrotation Yrotation
          JOINT Spine3
          {
            OFFSET 0.0353017 9.71596 0.00525809
            CHANNELS 3 Zrotation Xrotation Yrotation
            JOINT Neck
            {
              OFFSET 0.0870676 10.3793 0.0454457
              CHANNELS 3 Zrotation Xrotation Yrotation
              JOINT Head
              {
                OFFSET 0.0878806 9.48152 0.0233162
                CHANNELS 3 Zrotation Xrotation Yrotation
                End Site
                {
                  OFFSET 0 15.95 0
                }
              }
            }
            JOINT RightShoulder
            {
              OFFSET -3.16008 6.92912 0.0289115
              CHANNELS 3 Zrotation Xrotation Yrotation
              JOINT RightArm
              {
                OFFSET -12.7589 0.0216905 0.0632467
                CHANNELS 3 Zrotation Xrotation Yrotation
                JOINT RightForeArm
                {
                  OFFSET -26.506 -0.0577999 0.0567862
                  CHANNELS 3 Zrotation Xrotation Yrotation
                  JOINT RightHand
                  {
                    OFFSET -25.9836 -0.0526551 -0.00138994
                    CHANNELS 3 Zrotation Xrotation Yrotation
                    JOINT RightHandThumb1
                    {
                      OFFSET -2.48905 0.190105 3.12053
                      CHANNELS 3 Zrotation Xrotation Yrotation
                      JOINT RightHandThumb2
                      {
                        OFFSET -3.68274 0 0
                        CHANNELS 3 Zrotation Xrotation Yrotation
                        JOINT RightHandThumb3
                        {
                          OFFSET -2.55832 0 0
                          CHANNELS 3 Zrotation Xrotation Yrotation
                          End Site
                          {
                            OFFSET -2.194 0 0
                          }
                        }
                      }
                    }
                    JOINT RightInHandIndex
                    {
                      OFFSET -3.22368 0.508421 1.97842
                      CHANNELS 3 Zrotation Xrotation Yrotation
                      JOINT RightHandIndex1
                      {
                        OFFSET -5.21684 -0.091368 0.999158
                        CHANNELS 3 Zrotation Xrotation Yrotation
                        JOINT RightHandIndex2
                        {
                          OFFSET -3.61937 0 0
                          CHANNELS 3 Zrotation Xrotation Yrotation
                          JOINT RightHandIndex3
                          {
                            OFFSET -2.0521 0 0
                            CHANNELS 3 Zrotation Xrotation Yrotation
                            End Site
                            {
                              OFFSET -1.805 0 0
                            }
                          }
                        }
                      }
                    }
                    JOINT RightInHandMiddle
                    {
                      OFFSET -3.38211 0.517263 0.756737
                      CHANNELS 3 Zrotation Xrotation Yrotation
                      JOINT RightHandMiddle1
                      {
                        OFFSET -5.17411 -0.084 0.313895
                        CHANNELS 3 Zrotation Xrotation Yrotation
                        JOINT RightHandMiddle2
                        {
                          OFFSET -3.94947 0 0
                          CHANNELS 3 Zrotation Xrotation Yrotation
                          JOINT RightHandMiddle3
                          {
                            OFFSET -2.47579 0 0
                            CHANNELS 3 Zrotation Xrotation Yrotation
                            End Site
                            {
                              OFFSET -1.975 0 0
                            }
                          }
                        }
                      }
                    }
                    JOINT RightInHandRing
                    {
                      OFFSET -3.36516 0.537895 -0.128947
                      CHANNELS 3 Zrotation Xrotation Yrotation
                      JOINT RightHandRing1
                      {
                        OFFSET -4.63474 -0.022105 -0.478947
                        CHANNELS 3 Zrotation Xrotation Yrotation
                        JOINT RightHandRing2
                        {
                          OFFSET -3.44238 0 0
                          CHANNELS 3 Zrotation Xrotation Yrotation
                          JOINT RightHandRing3
                          {
                            OFFSET -2.3881 0 0
                            CHANNELS 3 Zrotation Xrotation Yrotation
                            End Site
                            {
                              OFFSET -1.857 0 0
                            }
                          }
                        }
                      }
                    }
                    JOINT RightInHandPinky
                    {
                      OFFSET -3.16105 0.469368 -1.20179
                      CHANNELS 3 Zrotation Xrotation Yrotation
                      JOINT RightHandPinky1
                      {
                        OFFSET -4.14105 -0.022105 -1.09053
                        CHANNELS 3 Zrotation Xrotation Yrotation
                        JOINT RightHandPinky2
                        {
                          OFFSET -2.75653 0 0
                          CHANNELS 3 Zrotation Xrotation Yrotation
                          JOINT RightHandPinky3
                          {
                            OFFSET -1.74189 0 0
                            CHANNELS 3 Zrotation Xrotation Yrotation
                            End Site
                            {
                              OFFSET -1.645 0 0
                            }
                          }
                        }
                      }
                    }
                  }
                }
              }
            }
            JOINT LeftShoulder
            {
              OFFSET 3.24363 6.91883 -0.0263005
              CHANNELS 3 Zrotation Xrotation Yrotation
              JOINT LeftArm
              {
                OFFSET 12.8387 -0.0254922 -0.065819
                CHANNELS 3 Zrotation Xrotation Yrotation
                JOINT LeftForeArm
                {
                  OFFSET 26.503 -0.0679028 -0.0690065
                  CHANNELS 3 Zrotation Xrotation Yrotation
                  JOINT LeftHand
                  {
                    OFFSET 25.9897 -0.0384179 -0.0536179
                    CHANNELS 3 Zrotation Xrotation Yrotation
                    JOINT LeftHandThumb1
                    {
                      OFFSET 2.48905 0.190105 3.12053
                      CHANNELS 3 Zrotation Xrotation Yrotation
                      JOINT LeftHandThumb2
                      {
                        OFFSET 3.68274 0 0
                        CHANNELS 3 Zrotation Xrotation Yrotation
                        JOINT LeftHandThumb3
                        {
                          OFFSET 2.55832 0 0
                          CHANNELS 3 Zrotation Xrotation Yrotation
                          End Site
                          {
                            OFFSET 2.194 0 0
                          }
                        }
                      }
                    }
                    JOINT LeftInHandIndex
                    {
                      OFFSET 3.22368 0.508421 1.97842
                      CHANNELS 3 Zrotation Xrotation Yrotation
                      JOINT LeftHandIndex1
                      {
                        OFFSET 5.21684 -0.091368 0.999158
                        CHANNELS 3 Zrotation Xrotation Yrotation
                        JOINT LeftHandIndex2
                        {
                          OFFSET 3.61937 0 0
                          CHANNELS 3 Zrotation Xrotation Yrotation
                          JOINT LeftHandIndex3
                          {
                            OFFSET 2.0521 0 0
                            CHANNELS 3 Zrotation Xrotation Yrotation
                            End Site
                            {
                              OFFSET 1.805 0 0
                            }
                          }
                        }
                      }
                    }
                    JOINT LeftInHandMiddle
                    {
                      OFFSET 3.38211 0.517263 0.756737
                      CHANNELS 3 Zrotation Xrotation Yrotation
                      JOINT LeftHandMiddle1
                      {
                        OFFSET 5.17411 -0.084 0.313895
                        CHANNELS 3 Zrotation Xrotation Yrotation
                        JOINT LeftHandMiddle2
                        {
                          OFFSET 3.94947 0 0
                          CHANNELS 3 Zrotation Xrotation Yrotation
                          JOINT LeftHandMiddle3
                          {
                            OFFSET 2.47579 0 0
                            CHANNELS 3 Zrotation Xrotation Yrotation
                            End Site
                            {
                              OFFSET 1.975 0 0
                            }
                          }
                        }
                      }
                    }
                    JOINT LeftInHandRing
                    {
                      OFFSET 3.36516 0.537895 -0.128947
                      CHANNELS 3 Zrotation Xrotation Yrotation
                      JOINT LeftHandRing1
                      {
                        OFFSET 4.63474 -0.022105 -0.478947
                        CHANNELS 3 Zrotation Xrotation Yrotation
                        JOINT LeftHandRing2
                        {
                          OFFSET 3.44238 0 0
                          CHANNELS 3 Zrotation Xrotation Yrotation
                          JOINT LeftHandRing3
                          {
                            OFFSET 2.3881 0 0
                            CHANNELS 3 Zrotation Xrotation Yrotation
                            End Site
                            {
                              OFFSET 1.857 0 0
                            }
                          }
                        }
                      }
                    }
                    JOINT LeftInHandPinky
                    {
                      OFFSET 3.16105 0.469368 -1.20179
                      CHANNELS 3 Zrotation Xrotation Yrotation
                      JOINT LeftHandPinky1
                      {
                        OFFSET 4.14105 -0.022105 -1.09053
                        CHANNELS 3 Zrotation Xrotation Yrotation
                        JOINT LeftHandPinky2
                        {
                          OFFSET 2.75653 0 0
                          CHANNELS 3 Zrotation Xrotation Yrotation
                          JOINT LeftHandPinky3
                          {
                            OFFSET 1.74189 0 0
                            CHANNELS 3 Zrotation Xrotation Yrotation
                            End Site
                            {
                              OFFSET 1.645 0 0
                            }
                          }
                        }
                      }
                    }
                  }
                }
              }
            }
          }
        }
      }
    }
  }
}
MOTION
Frames: 2
Frame Time: 0.00833333
3.150000000000000000e+03 0.000000000000000000e+00 0.000000000000000000e+00 0.000000000000000000e+00 0.000000000000000000e+00 0.000000000000000000e+00 2.761610000000000298e+01 1.283659999999999890e+01 -6.980700000000001637e+01 -1.284310000000000329e+01 -5.534790000000000276e+01 -1.383060000000000045e+01 -1.654399999999998983e+00 2.686869999999999692e+01 -1.479959999999999987e+01 8.084109999999999019e+00 1.694450000000000678e+00 2.862819999999999965e+01 9.221470000000003608e+00 -4.772190000000000509e+01 4.627200000000009084e-01 4.927590000000002135e+00 3.260129999999999484e+01 -9.679000000000002046e-01 -1.048120000000000118e+01 -1.319180000000000241e+01 -1.778920000000000101e+01 -8.219320000000001514e+00 1.069849999999999923e+01 1.659810000000000230e+01 -1.772739999999999760e+00 2.939579999999999860e+00 3.989660000000000650e+00 -2.952139999999999986e+00 4.787759999999999572e+00 6.457860000000000156e+00 -1.970359999999999889e-01 -2.732140000000000679e-01 -5.183060000000003775e-01 -1.971490000000000187e-01 -2.754780000000001117e-01 -5.178080000000022665e-01 -3.962180000000001812e+00 -5.045620000000001326e+00 -9.181020000000000181e+00 3.316590000000000149e+00 -1.110119999999999862e+01 2.259879999999999711e+01 7.378409999999999513e+01 2.845470000000460686e-02 5.103879999999999484e+01 3.487369999999999948e+01 -5.564970000000000994e+01 2.326720000000000255e+01 9.926180000000000447e+00 -2.076390000000000313e+01 -1.888100000000000023e+01 2.818400000000000105e+01 1.072940000000000005e+01 1.915919999999999845e+01 -4.388770000000001301e-15 2.584199999999998880e-15 -1.000000000000000000e+01 1.684910000000001577e-15 3.975689999999992625e-16 -1.000000000000000000e+01 1.590280000000000116e-14 -3.180549999999999982e-15 6.361109999999998163e-15 1.998179999999999978e+01 8.718970000000000331e-01 2.396399999999999864e+00 2.400000000000000000e+01 9.939229999999980662e-17 1.908330000000000462e-14 2.000000000000000000e+01 1.351740000000000149e-14 5.884029999999998860e-14 1.590280000000000116e-14 -3.180549999999999982e-15 6.361109999999998163e-15 2.000000000000000000e+01 -4.770830000000000256e-15 9.541659999999998934e-15 2.400000000000000000e+01 1.292100000000000623e-15 2.544439999999999986e-14 2.000000000000000000e+01 7.156249999999997906e-15 1.908330000000000462e-14 1.590280000000000116e-14 -3.180549999999999982e-15 6.361109999999998163e-15 1.997479999999999833e+01 -1.025649999999999951e+00 -2.819380000000000219e+00 2.400000000000000000e+01 1.818880000000000084e-14 1.272220000000000151e-14 2.000000000000000000e+01 1.908329999999999831e-14 5.088890000000000695e-14 1.590280000000000116e-14 -3.180549999999999982e-15 6.361109999999998163e-15 1.978150000000000119e+01 -3.009479999999999933e+00 -8.305149999999999366e+00 2.400000000000000000e+01 1.590279999999999091e-15 1.272220000000000308e-14 2.000000000000000000e+01 2.623959999999999984e-14 3.180550000000000140e-14 8.111100000000000421e+00 -1.266669999999999874e+01 -2.819300000000000139e+01 -3.121009999999999707e+01 3.606669999999999021e+01 -7.089979999999999905e+01 1.471299999999999386e+01 -5.730180000000000007e+01 1.675309999999999633e+01 -2.177990000000000492e+01 -2.306909999999999883e+01 1.087769999999999904e+01 -2.818400000000000105e+01 1.072940000000000005e+01 -1.915919999999999845e+01 -8.006410000000001450e-15 -9.541660000000000512e-15 1.000000000000000000e+01 1.516169999999999865e-14 -1.272219999999999993e-14 1.000000000000000000e+01 -6.361109999999999741e-15 -6.361109999999999741e-15 -4.770829999999999467e-15 -1.998179999999999978e+01 8.718970000000000331e-01 -2.396399999999999864e+00 -2.400000000000000000e+01 -1.590280000000000274e-15 -3.180549999999999982e-15 -2.000000000000000000e+01 4.907500000000003323e-16 3.180550000000000771e-15 -6.361109999999999741e-15 -6.361109999999999741e-15 -4.770829999999999467e-15 -2.000000000000000000e+01 -9.541660000000000512e-15 -1.272220000000000151e-14 -2.400000000000000000e+01 -1.113189999999999931e-14 0.000000000000000000e+00 -2.000000000000000000e+01 2.683590000000000679e-15 6.361109999999999741e-15 -6.361109999999999741e-15 -6.361109999999999741e-15 -4.770829999999999467e-15 -1.997479999999999833e+01 -1.025649999999999951e+00 2.819380000000000219e+00 -2.400000000000000000e+01 -4.770830000000000256e-15 -3.180550000000000771e-15 -2.000000000000000000e+01 -6.361110000000000530e-15 1.908330000000000462e-14 -6.361109999999999741e-15 -6.361109999999999741e-15 -4.770829999999999467e-15 -1.978150000000000119e+01 -3.009479999999999933e+00 8.305149999999999366e+00 -2.400000000000000000e+01 -2.385420000000000017e-15 6.361109999999998163e-15 -2.000000000000000000e+01 6.758679999999998035e-15 -3.180550000000000771e-15
3.150000000000000000e+03 0.000000000000000000e+00 0.000000000000000000e+00 0.000000000000000000e+00 0.000000000000000000e+00 0.000000000000000000e+00 2.762460000000000093e+01 1.263499999999999979e+01 -7.022300000000001319e+01 -1.244300000000000139e+01 -5.539330000000000354e+01 -1.324949999999999761e+01 -1.712639999999998608e+00 2.678020000000000067e+01 -1.467549999999999955e+01 8.037349999999999994e+00 1.851689999999999614e+00 2.863880000000000692e+01 9.469730000000001979e+00 -4.759109999999999729e+01 1.072089999999999321e+00 4.887940000000000396e+00 3.267610000000001236e+01 -1.071689999999996701e+00 -1.040739999999999910e+01 -1.327990000000000315e+01 -1.768840000000000146e+01 -8.292099999999997806e+00 1.066750000000000043e+01 1.674060000000000059e+01 -1.789609999999999701e+00 2.936280000000000001e+00 4.024460000000000370e+00 -2.978940000000000587e+00 4.783360000000000944e+00 6.510399999999999743e+00 -2.036709999999999354e-01 -2.732139999999999569e-01 -5.125490000000003654e-01 -2.037909999999999444e-01 -2.754780000000001117e-01 -5.120199999999996976e-01 -4.077070000000000860e+00 -5.033979999999997901e+00 -9.077480000000001326e+00 3.342530000000000001e+00 -1.089440000000000097e+01 2.255669999999999931e+01 7.410500000000000398e+01 -3.604330000000004475e-01 5.088610000000000610e+01 3.584790000000000987e+01 -5.534690000000000509e+01 2.440739999999999554e+01 1.007840000000000202e+01 -2.082729999999999748e+01 -1.881929999999999836e+01 2.818400000000000105e+01 1.072940000000000005e+01 1.915919999999999845e+01 -1.079789999999999822e-14 1.202650000000000245e-14 -1.000000000000000000e+01 7.300470000000001658e-15 4.770830000000001045e-15 -1.000000000000000000e+01 1.272220000000000151e-14 1.590280000000000668e-15 3.180550000000000771e-15 1.998179999999999978e+01 8.718970000000000331e-01 2.396399999999999864e+00 2.400000000000000000e+01 -5.901419999999988124e-16 2.544440000000000617e-14 2.000000000000000000e+01 1.192709999999999772e-14 5.724999999999997063e-14 1.272220000000000151e-14 1.590280000000000668e-15 3.180550000000000771e-15 2.000000000000000000e+01 -7.951390000000003171e-16 1.908329999999999831e-14 2.400000000000000000e+01 3.553280000000000814e-15 2.544439999999999986e-14 2.000000000000000000e+01 4.770829999999998678e-15 4.770829999999999625e-14 1.272220000000000151e-14 1.590280000000000668e-15 3.180550000000000771e-15 1.997479999999999833e+01 -1.025649999999999951e+00 -2.819380000000000219e+00 2.400000000000000000e+01 1.128100000000000010e-14 6.361109999999998163e-15 2.000000000000000000e+01 1.510759999999999802e-14 3.816669999999999125e-14 1.272220000000000151e-14 1.590280000000000668e-15 3.180550000000000771e-15 1.978150000000000119e+01 -3.009479999999999933e+00 -8.305149999999999366e+00 2.400000000000000000e+01 -7.951390000000002382e-15 1.590280000000000116e-14 2.000000000000000000e+01 1.669789999999999706e-14 4.452779999999999910e-14 8.164960000000000662e+00 -1.267239999999999966e+01 -2.828370000000000317e+01 -3.113799999999999812e+01 3.612999999999999545e+01 -7.103740000000001942e+01 1.483569999999999567e+01 -5.682450000000000756e+01 1.682720000000000482e+01 -2.197199999999999420e+01 -2.400219999999999487e+01 1.064470000000000027e+01 -2.818400000000000105e+01 1.072940000000000005e+01 -1.915919999999999845e+01 5.608180000000006654e-16 -3.180549999999999193e-15 1.000000000000000000e+01 2.485059999999999877e-14 -1.272219999999999993e-14 1.000000000000000000e+01 -9.541660000000000512e-15 -1.590280000000000116e-14 -7.951390000000000804e-15 -1.998179999999999978e+01 8.718970000000000331e-01 -2.396399999999999864e+00 -2.400000000000000000e+01 -3.180549999999999982e-15 -1.272219999999999677e-14 -2.000000000000000000e+01 -2.789199999999999648e-15 -6.361109999999995797e-15 -9.541660000000000512e-15 -1.590280000000000116e-14 -7.951390000000000804e-15 -2.000000000000000000e+01 0.000000000000000000e+00 -2.862499999999999793e-14 -2.400000000000000000e+01 0.000000000000000000e+00 -1.908330000000000462e-14 -2.000000000000000000e+01 -3.975690000000016291e-16 -2.226389999999999639e-14 -9.541660000000000512e-15 -1.590280000000000116e-14 -7.951390000000000804e-15 -1.997479999999999833e+01 -1.025649999999999951e+00 2.819380000000000219e+00 -2.400000000000000000e+01 7.951389999999999226e-15 -2.862500000000000425e-14 -2.000000000000000000e+01 -3.776910000000000072e-15 -6.361110000000001319e-15 -9.541660000000000512e-15 -1.590280000000000116e-14 -7.951390000000000804e-15 -1.978150000000000119e+01 -3.009479999999999933e+00 8.305149999999999366e+00 -2.400000000000000000e+01 1.590280000000000274e-15 -2.226389999999999955e-14 -2.000000000000000000e+01 3.578119999999999853e-15 -6.361110000000002897e-15
